<svg xmlns="http://www.w3.org/2000/svg" width="28" height="28" viewBox="0 0 28 28"><defs><style>.cls-1{fill:#fff;}</style></defs><title>akeedcare</title><g id="icons"><path class="cls-1" d="M12.26,24.62a.71.71,0,0,1-.54-.24L8.67,21H6.79A2.79,2.79,0,0,1,4,18.21V8.79A2.79,2.79,0,0,1,6.79,6H21.21A2.79,2.79,0,0,1,24,8.79v9.42A2.79,2.79,0,0,1,21.21,21H13v2.88a.74.74,0,0,1-.47.69A.86.86,0,0,1,12.26,24.62ZM6.79,7A1.79,1.79,0,0,0,5,8.79v9.42A1.79,1.79,0,0,0,6.79,20h2a.76.76,0,0,1,.55.24l2.67,3V20.74a.74.74,0,0,1,.74-.74h8.47A1.79,1.79,0,0,0,23,18.21V8.79A1.79,1.79,0,0,0,21.21,7Z"/><path class="cls-1" d="M19.5,12H8.5a.5.5,0,0,1,0-1h11a.5.5,0,0,1,0,1Z"/><path class="cls-1" d="M15.5,15h-7a.5.5,0,0,1,0-1h7a.5.5,0,0,1,0,1Z"/></g></svg>