<svg xmlns="http://www.w3.org/2000/svg" viewBox="0 0 86.38 76.77"><defs><style>.cls-1{fill:none;}.cls-2{fill:#b3b3b3;}</style></defs><title>empty-chat</title><g id="Layer_2" data-name="Layer 2"><g id="Layer_1-2" data-name="Layer 1"><rect class="cls-1" width="86.38" height="76.77"/><path class="cls-2" d="M37.77,76.17a3.43,3.43,0,0,1-2.71-1.32L28.33,63.23l-7,0h-.22a9,9,0,0,1-9-9v-32a9,9,0,0,1,9-9H65.21a9.06,9.06,0,0,1,9.05,9v32a9,9,0,0,1-9,9h-24v9.45a3.51,3.51,0,0,1-3.51,3.49ZM29.28,59.91a1.66,1.66,0,0,1,1.44.83L37.8,73l.16-.31V61.57a1.66,1.66,0,0,1,1.66-1.66H65.23a5.66,5.66,0,0,0,4-1.67,5.73,5.73,0,0,0,1.68-4v-32a5.73,5.73,0,0,0-5.73-5.72H21.12a5.71,5.71,0,0,0-5.69,5.73v32A5.7,5.7,0,0,0,21,60h.16l8.1,0Z"/><path class="cls-2" d="M25.58,33.37a1.66,1.66,0,1,1,0-3.32H62a1.66,1.66,0,1,1,0,3.32Z"/><path class="cls-2" d="M25.58,42.37a1.66,1.66,0,1,1,0-3.32H48.72a1.67,1.67,0,0,1,0,3.33Z"/></g></g></svg>