<svg xmlns="http://www.w3.org/2000/svg" width="28" height="28" viewBox="0 0 28 28"><defs><style>.cls-1{fill:#cb548d;}</style></defs><title>image</title><g id="icons"><path class="cls-1" d="M23.89,6H4.11A2.12,2.12,0,0,0,2,8.11V20.89A2.12,2.12,0,0,0,4.11,23H23.89A2.12,2.12,0,0,0,26,20.89V8.11A2.12,2.12,0,0,0,23.89,6ZM25,20.89A1.11,1.11,0,0,1,23.89,22H4.11A1.11,1.11,0,0,1,3,20.89V19.78l5.25-3.11L12.49,19a.48.48,0,0,0,.56-.06L20,13l5,2.78Zm0-6.24L20.15,12a.51.51,0,0,0-.57,0l-6.91,5.91L8.48,15.66a.48.48,0,0,0-.49,0l-5,3V8.11A1.11,1.11,0,0,1,4.11,7H23.89A1.11,1.11,0,0,1,25,8.11ZM8,8a3,3,0,1,0,3,3A3,3,0,0,0,8,8Zm0,5a2,2,0,1,1,2-2A2,2,0,0,1,8,13Z"/></g></svg>